<svg xmlns="http://www.w3.org/2000/svg" viewBox="0 0 802.753 671.887" width="802.753" height="671.887" role="img" aria-labelledby="t">
  <title id="t">Agorà</title>
  <path fill="currentColor" d="M633.694 671.886C622.343 649.461 610.14 624.366 599.001 602.067C587.544 579.13 575.405 554.091 564.055 531.634C552.698 509.165 544.228 489.944 532.409 468.89C520.017 446.815 487.438 435.695 471.401 416.206L467.368 405.559L467.43 396.793C473.385 376.227 492.781 363.88 510.304 353.584C529.473 342.321 550.086 333.91 569.541 326.103C588.715 318.409 613.448 311.541 631.672 302.563C633.57 301.712 636.689 299.059 636.59 296.847C636.502 294.885 633.128 292.478 631.422 291.758C616.983 285.308 594.947 281.522 579.624 278.422C563.937 275.249 540.731 271.43 524.449 268.376C509.326 265.539 486.673 260.851 472.043 255.937C455.661 250.434 443.282 243.388 436.482 226.307C430.593 211.514 424.755 194.834 418.349 179.734C417.95 179.081 417.843 176.9 416.519 176.706C416.51 176.705 414.921 179.446 414.844 179.718L378.584 252.521C377.33 255.652 377.036 255.737 378.403 258.28C379.109 259.595 381.853 261.841 383.497 262.677C396.447 269.451 408.406 271.619 422.577 274.476C436.86 277.355 452.149 279.018 466.666 281.065C480.742 283.05 496.542 284.938 510.673 286.862C524.97 288.81 540.541 290.707 554.594 294.263C555.44 294.567 559.653 295.68 560.111 297.306C560.83 299.855 555.684 301.794 555.496 301.891C534.627 308.77 502.258 315.836 481.515 321.64C459.096 327.913 431.938 336.677 410.627 345.601C390.613 353.982 367.718 365.395 349.478 377.871C330.979 390.524 314.421 406.972 302 424.816C289.165 443.254 278.078 464.966 267.489 485.242C257.273 504.803 245.671 527.308 235.515 546.957C225.369 566.586 213.857 589.273 203.591 609.236C193.583 628.697 181.564 652.005 171.558 671.87L0 671.882L342.314 0L492.398 0.021C498.559 16.352 507.007 37.557 513.384 53.699C519.772 69.866 527.627 89.786 534.018 105.849C540.352 121.767 548.426 142.503 554.955 158.826C561.396 174.927 568.398 195.415 578.113 209.805C588.135 224.648 602.015 235.345 617.63 244.113C633.111 252.804 652.394 259.922 668.787 265.941C684.889 271.853 706.817 277.793 720.67 288.082C722.992 289.965 725.525 292.516 725.636 295.87C725.736 298.873 722.955 301.964 720.677 303.551C715.348 307.736 708.64 310.389 702.554 312.901C696.056 315.582 688.994 318.015 682.593 320.42C676.132 322.847 668.661 325.308 662.156 327.762C655.869 330.133 648.699 333.141 642.73 335.645C636.332 338.33 629.805 341.587 623.687 344.729C617.842 347.73 611.651 351.263 606.271 354.834C600.77 358.487 595.908 362.484 591.82 366.706C585.745 372.981 583.592 378.585 581.022 385.84L582.234 396.921C588.675 410.747 601.219 420.436 613.611 428.434C625.835 436.325 640.411 443.798 653.568 450.649C666.613 457.442 680.574 464.402 692.687 473.151C704.413 481.622 714.68 493.193 721.599 506.311C728.512 519.418 735.004 533.823 741.68 546.967C748.074 559.557 755.984 575.568 762.51 588.748C768.959 601.774 776.493 616.597 782.86 629.91C788.977 642.699 797.617 658.141 802.753 671.887L633.694 671.886Z"/>
</svg>
